<svg xmlns="http://www.w3.org/2000/svg" viewBox="0 0 200 200" fill="none">
<defs>
<linearGradient id="back" x1="40" y1="45" x2="155" y2="153" gradientUnits="userSpaceOnUse"><stop stop-color="#F5F3FF"/><stop offset=".55" stop-color="#9DA5ED"/><stop offset="1" stop-color="#575FA7"/></linearGradient>
<linearGradient id="paper" x1="80" y1="39" x2="130" y2="130" gradientUnits="userSpaceOnUse"><stop stop-color="white"/><stop offset="1" stop-color="#D2D5FF"/></linearGradient>
<linearGradient id="front" x1="50" y1="95" x2="140" y2="172" gradientUnits="userSpaceOnUse"><stop stop-color="#FDBA74"/><stop offset=".55" stop-color="#FB923C"/><stop offset="1" stop-color="#B95723"/></linearGradient>
</defs>
<path d="M31 49L68 31L91 51L157 43V145L69 181L31 157Z" fill="url(#back)"/>
<path d="M61 60L114 37L140 52V134L61 166Z" fill="url(#paper)"/>
<path d="M114 37V64L140 52Z" fill="#A9B1E8"/>
<path d="M76 82L122 63M76 97L122 78M76 112L112 97" stroke="#8C96CC" stroke-width="5" stroke-linecap="round"/>
<path d="M31 92L70 111L172 70L157 145L69 181L31 157Z" fill="url(#front)"/>
<path d="M31 92L70 111L172 70" stroke="#FFE6C1" stroke-width="2"/>
<path d="M70 111L69 181L31 157V92Z" fill="#FFBC79" fill-opacity=".3"/>
</svg>
